<?xml version="1.0" encoding="UTF-8" ?>
<svg version="1.1" width="32" height="32" xmlns="http://www.w3.org/2000/svg" shape-rendering="crispEdges">
<rect x="0" y="0" width="32" height="8" fill="#92E8C0" />
<rect x="0" y="8" width="9" height="1" fill="#92E8C0" />
<rect x="9" y="8" width="4" height="14" fill="#FF8933" />
<rect x="13" y="8" width="19" height="1" fill="#92E8C0" />
<rect x="0" y="9" width="7" height="1" fill="#92E8C0" />
<rect x="7" y="9" width="2" height="12" fill="#FF8933" />
<rect x="13" y="9" width="3" height="12" fill="#FF8933" />
<rect x="16" y="9" width="16" height="1" fill="#92E8C0" />
<rect x="0" y="10" width="6" height="1" fill="#92E8C0" />
<rect x="6" y="10" width="1" height="10" fill="#FF8933" />
<rect x="16" y="10" width="3" height="10" fill="#FF8933" />
<rect x="19" y="10" width="13" height="1" fill="#92E8C0" />
<rect x="0" y="11" width="5" height="2" fill="#92E8C0" />
<rect x="5" y="11" width="1" height="8" fill="#FF8933" />
<rect x="19" y="11" width="1" height="3" fill="#FF8933" />
<rect x="20" y="11" width="12" height="1" fill="#92E8C0" />
<rect x="20" y="12" width="1" height="1" fill="#FF8933" />
<rect x="21" y="12" width="3" height="1" fill="#92E8C0" />
<rect x="24" y="12" width="3" height="7" fill="#FFC2A1" />
<rect x="27" y="12" width="5" height="1" fill="#92E8C0" />
<rect x="0" y="13" width="4" height="19" fill="#92E8C0" />
<rect x="4" y="13" width="1" height="4" fill="#FF8933" />
<rect x="20" y="13" width="4" height="5" fill="#FFC2A1" />
<rect x="27" y="13" width="1" height="5" fill="#FFC2A1" />
<rect x="28" y="13" width="4" height="19" fill="#92E8C0" />
<rect x="19" y="14" width="1" height="3" fill="#FFC2A1" />
<rect x="4" y="17" width="1" height="15" fill="#92E8C0" />
<rect x="19" y="17" width="1" height="2" fill="#FF8933" />
<rect x="20" y="18" width="4" height="14" fill="#92E8C0" />
<rect x="27" y="18" width="1" height="14" fill="#92E8C0" />
<rect x="5" y="19" width="1" height="13" fill="#92E8C0" />
<rect x="19" y="19" width="1" height="13" fill="#92E8C0" />
<rect x="24" y="19" width="3" height="13" fill="#92E8C0" />
<rect x="6" y="20" width="1" height="12" fill="#92E8C0" />
<rect x="16" y="20" width="3" height="12" fill="#92E8C0" />
<rect x="7" y="21" width="2" height="11" fill="#92E8C0" />
<rect x="13" y="21" width="3" height="11" fill="#92E8C0" />
<rect x="9" y="22" width="4" height="10" fill="#92E8C0" />
</svg>
